<svg width="21" height="10" viewBox="0 0 21 10" fill="none" xmlns="http://www.w3.org/2000/svg">
<path d="M1 4.35C0.641015 4.35 0.35 4.64101 0.35 5C0.35 5.35899 0.641015 5.65 1 5.65V4.35ZM20.4596 5.45962C20.7135 5.20578 20.7135 4.79422 20.4596 4.54038L16.323 0.403806C16.0692 0.149965 15.6576 0.149965 15.4038 0.403806C15.15 0.657647 15.15 1.0692 15.4038 1.32304L19.0808 5L15.4038 8.67696C15.15 8.9308 15.15 9.34235 15.4038 9.59619C15.6576 9.85003 16.0692 9.85003 16.323 9.59619L20.4596 5.45962ZM1 5V5.65H20V5V4.35H1V5Z" fill="black"/>
</svg>
