<svg width="28" height="24" viewBox="0 0 28 24" fill="none" xmlns="http://www.w3.org/2000/svg">
<path d="M11.4987 17.7195C9.74023 17.7195 8.30955 19.1285 8.30955 20.8605C8.30955 22.5916 9.74023 24 11.4987 24C13.2572 24 14.6879 22.5916 14.6879 20.8605C14.6879 19.1285 13.2572 17.7195 11.4987 17.7195ZM11.4987 22.3885C10.6428 22.3885 9.94657 21.703 9.94657 20.8605C9.94657 20.0171 10.6428 19.331 11.4987 19.331C12.3546 19.331 13.0508 20.0171 13.0508 20.8605C13.0508 21.703 12.3546 22.3885 11.4987 22.3885ZM21.2539 17.7195C19.4954 17.7195 18.0647 19.1285 18.0647 20.8605C18.0647 22.5916 19.4954 24 21.2539 24C23.0123 24 24.443 22.5916 24.443 20.8605C24.443 19.1285 23.0123 17.7195 21.2539 17.7195ZM21.2539 22.3885C20.398 22.3885 19.7017 21.703 19.7017 20.8605C19.7017 20.0171 20.398 19.331 21.2539 19.331C22.1097 19.331 22.806 20.0171 22.806 20.8605C22.806 21.703 22.1097 22.3885 21.2539 22.3885ZM27.9225 6.24307L25.8563 14.8075C25.5614 16.0311 24.463 16.8859 23.1852 16.8859H10.3286C9.0562 16.8859 7.95878 16.0355 7.65975 14.8178L5.78331 7.14931L4.42663 1.61155H0.818508C0.366461 1.61155 0 1.25084 0 0.805775C0 0.360706 0.366516 0 0.818508 0H5.07112C5.44923 0 5.77812 0.254971 5.86682 0.616862L7.37478 6.7717L9.25105 14.4398C9.3736 14.9387 9.80667 15.2744 10.3286 15.2744H23.1852C23.7092 15.2744 24.1426 14.9372 24.2636 14.4354L26.3298 5.8709C26.4132 5.52468 26.3447 5.22044 26.1202 4.94114C25.8959 4.66194 25.6112 4.52622 25.2499 4.52622H10.0096C9.55757 4.52622 9.19111 4.1654 9.19111 3.72044C9.19111 3.27548 9.55757 2.91467 10.0096 2.91467H25.2499C26.1072 2.91467 26.8722 3.27936 27.4041 3.9415C27.9364 4.60391 28.1204 5.42136 27.9225 6.24307Z" fill="black"/>
</svg>
