<svg width="26" height="23" viewBox="0 0 26 23" fill="none" xmlns="http://www.w3.org/2000/svg">
<path d="M10.6774 16.9811C9.0445 16.9811 7.71601 18.3315 7.71601 19.9913C7.71601 21.6503 9.0445 23 10.6774 23C12.3102 23 13.6387 21.6503 13.6387 19.9913C13.6387 18.3315 12.3102 16.9811 10.6774 16.9811ZM10.6774 21.4556C9.88264 21.4556 9.2361 20.7987 9.2361 19.9913C9.2361 19.1831 9.88264 18.5255 10.6774 18.5255C11.4721 18.5255 12.1186 19.1831 12.1186 19.9913C12.1186 20.7987 11.4721 21.4556 10.6774 21.4556ZM19.7357 16.9811C18.1029 16.9811 16.7744 18.3315 16.7744 19.9913C16.7744 21.6503 18.1029 23 19.7357 23C21.3686 23 22.6971 21.6503 22.6971 19.9913C22.6971 18.3315 21.3686 16.9811 19.7357 16.9811ZM19.7357 21.4556C18.941 21.4556 18.2945 20.7987 18.2945 19.9913C18.2945 19.1831 18.941 18.5255 19.7357 18.5255C20.5305 18.5255 21.177 19.1831 21.177 19.9913C21.177 20.7987 20.5305 21.4556 19.7357 21.4556ZM25.928 5.98294L24.0094 14.1906C23.7356 15.3632 22.7156 16.1823 21.5291 16.1823H9.59085C8.40933 16.1823 7.3903 15.3674 7.11263 14.2004L5.37022 6.85142L4.11044 1.5444H0.760043C0.340285 1.5444 0 1.19872 0 0.772201C0 0.345677 0.340336 0 0.760043 0H4.7089C5.06 0 5.3654 0.244347 5.44776 0.591159L6.84801 6.48954L8.59026 13.8382C8.70406 14.3163 9.1062 14.6379 9.59085 14.6379H21.5291C22.0157 14.6379 22.4182 14.3148 22.5305 13.8339L24.4491 5.62628C24.5265 5.29448 24.4629 5.00292 24.2545 4.73526C24.0462 4.46769 23.7818 4.33763 23.4464 4.33763H9.29465C8.87489 4.33763 8.5346 3.99185 8.5346 3.56543C8.5346 3.139 8.87489 2.79322 9.29465 2.79322H23.4463C24.2424 2.79322 24.9527 3.14272 25.4467 3.77727C25.9409 4.41208 26.1118 5.19547 25.928 5.98294Z" fill="#302A2A"/>
</svg>
