<svg width="23" height="20" viewBox="0 0 23 20" fill="none" xmlns="http://www.w3.org/2000/svg">
<path d="M9.44537 14.7662C8.0009 14.7662 6.8257 15.9404 6.8257 17.3837C6.8257 18.8263 8.0009 20 9.44537 20C10.8898 20 12.065 18.8263 12.065 17.3837C12.065 15.9404 10.8898 14.7662 9.44537 14.7662ZM9.44537 18.657C8.74234 18.657 8.17039 18.0858 8.17039 17.3837C8.17039 16.6809 8.74234 16.1092 9.44537 16.1092C10.1484 16.1092 10.7203 16.6809 10.7203 17.3837C10.7203 18.0858 10.1484 18.657 9.44537 18.657ZM17.4585 14.7662C16.0141 14.7662 14.8389 15.9404 14.8389 17.3837C14.8389 18.8263 16.0141 20 17.4585 20C18.903 20 20.0782 18.8263 20.0782 17.3837C20.0782 15.9404 18.903 14.7662 17.4585 14.7662ZM17.4585 18.657C16.7555 18.657 16.1836 18.0858 16.1836 17.3837C16.1836 16.6809 16.7555 16.1092 17.4585 16.1092C18.1616 16.1092 18.7335 16.6809 18.7335 17.3837C18.7335 18.0858 18.1616 18.657 17.4585 18.657ZM22.9363 5.20256L21.2391 12.3396C20.9969 13.3593 20.0946 14.0716 19.045 14.0716H8.48422C7.43902 14.0716 6.53757 13.3629 6.29194 12.3482L4.75058 5.95776L3.63616 1.34296H0.672346C0.301022 1.34296 0 1.04237 0 0.671479C0 0.300589 0.301066 0 0.672346 0H4.16556C4.47615 0 4.74631 0.212476 4.81918 0.514051L6.05785 5.64308L7.59908 12.0332C7.69975 12.4489 8.05548 12.7286 8.48422 12.7286H19.045C19.4754 12.7286 19.8314 12.4477 19.9308 12.0295L21.628 4.89242C21.6966 4.6039 21.6403 4.35037 21.4559 4.11762C21.2716 3.88495 21.0378 3.77185 20.741 3.77185H8.22219C7.85086 3.77185 7.54984 3.47117 7.54984 3.10037C7.54984 2.72957 7.85086 2.42889 8.22219 2.42889H20.741C21.4452 2.42889 22.0736 2.7328 22.5105 3.28458C22.9477 3.83659 23.0989 4.5178 22.9363 5.20256Z" fill="white"/>
</svg>
