<svg width="10" height="5" viewBox="0 0 10 5" fill="none" xmlns="http://www.w3.org/2000/svg">
<path d="M4.28567 4.87685C4.32438 4.91587 4.37042 4.94685 4.42115 4.96798C4.47189 4.98912 4.5263 5 4.58126 5C4.63622 5 4.69064 4.98912 4.74137 4.96798C4.7921 4.94685 4.83815 4.91587 4.87685 4.87685L9.04009 0.713617C9.07891 0.674799 9.1097 0.628716 9.1307 0.577999C9.15171 0.527282 9.16253 0.472923 9.16253 0.418027C9.16253 0.363131 9.15171 0.308772 9.1307 0.258055C9.1097 0.207337 9.07891 0.161255 9.04009 0.122437C9.00127 0.0836197 8.95519 0.052828 8.90447 0.0318201C8.85375 0.0108123 8.79939 0 8.7445 0C8.6896 0 8.63524 0.0108123 8.58453 0.0318201C8.53381 0.052828 8.48773 0.0836197 8.44891 0.122437L4.58126 3.99425L0.713617 0.122437C0.635222 0.0440418 0.528895 -1.65206e-09 0.418027 0C0.307159 1.65206e-09 0.200833 0.0440418 0.122437 0.122437C0.044042 0.200832 1.65206e-09 0.307159 0 0.418027C-1.65206e-09 0.528895 0.044042 0.635221 0.122437 0.713617L4.28567 4.87685Z" fill="black"/>
</svg>
