<svg width="600" height="54" viewBox="0 0 600 54" fill="none" xmlns="http://www.w3.org/2000/svg">
<path d="M63.9666 35.18C62.9556 31.244 60.1596 28.241 56.6736 26.784C57.2066 26.559 57.7286 26.302 58.2356 26.001C61.1016 24.306 63.1376 21.593 63.9666 18.362C64.0996 17.844 63.7866 17.315 63.2676 17.182C62.7486 17.051 62.2206 17.362 62.0876 17.879C61.3876 20.608 59.6686 22.899 57.2476 24.332C54.8266 25.764 51.9906 26.168 49.2646 25.467C44.8666 24.338 42.2056 19.842 43.3336 15.446C44.2156 12.032 47.7066 9.964 51.1166 10.841C53.7436 11.517 55.3326 14.204 54.6576 16.835C54.3616 17.991 53.5626 18.911 52.4666 19.36C51.9706 19.561 51.7336 20.128 51.9356 20.624C52.1386 21.12 52.7046 21.358 53.2006 21.155C54.8706 20.471 56.0866 19.073 56.5366 17.317C57.4766 13.651 55.2626 9.903 51.5996 8.962C47.1566 7.823 42.6056 10.515 41.4556 14.964C41.0846 16.409 41.0546 17.86 41.2976 19.241L33.0256 10.968V0.969C33.0256 0.434 32.5916 0 32.0556 0C31.5196 0 31.0856 0.434 31.0856 0.969V10.967L22.6696 19.383C22.9416 17.959 22.9236 16.457 22.5406 14.961C21.3906 10.512 16.8406 7.822 12.3976 8.961C8.73459 9.902 6.52059 13.65 7.45959 17.316C7.91059 19.072 9.12659 20.47 10.7956 21.154C11.2916 21.357 11.8576 21.119 12.0606 20.623C12.2636 20.127 12.0256 19.56 11.5296 19.359C10.4336 18.91 9.63459 17.99 9.33859 16.832C8.66359 14.203 10.2526 11.516 12.8796 10.84C16.2916 9.965 19.7816 12.031 20.6626 15.444C21.7906 19.842 19.1306 24.339 14.7326 25.467C12.0046 26.168 9.17059 25.764 6.74959 24.332C4.32859 22.898 2.60959 20.607 1.90959 17.879C1.77559 17.361 1.24759 17.049 0.729594 17.182C0.210594 17.315 -0.102406 17.844 0.0305938 18.362C0.860594 21.592 2.89559 24.305 5.76159 26.001C6.26359 26.3 6.78259 26.558 7.31159 26.778C6.78359 27.001 6.26359 27.247 5.76159 27.544C2.89559 29.239 0.859594 31.952 0.0305938 35.181C-0.102406 35.701 0.210594 36.23 0.729594 36.363C1.25159 36.498 1.77559 36.183 1.90959 35.666C2.60959 32.937 4.32859 30.645 6.74959 29.213C9.17059 27.781 12.0066 27.379 14.7326 28.076C19.1306 29.205 21.7916 33.703 20.6636 38.099C19.7806 41.513 16.2896 43.578 12.8806 42.703C11.6096 42.377 10.5396 41.574 9.87059 40.441C9.20159 39.308 9.01359 37.982 9.33959 36.709C9.63559 35.555 10.4346 34.635 11.5306 34.186C12.0266 33.983 12.2636 33.418 12.0616 32.92C11.8586 32.426 11.2936 32.19 10.7966 32.391C9.12759 33.075 7.91059 34.473 7.46059 36.229C7.00559 38.002 7.26859 39.85 8.20059 41.428C9.13259 43.006 10.6236 44.127 12.3976 44.582C13.0886 44.76 13.7826 44.844 14.4646 44.844C18.1726 44.844 21.5696 42.34 22.5416 38.582C22.8996 37.187 22.9446 35.785 22.7286 34.447L31.0846 42.802V52.657C31.0846 53.192 31.5186 53.626 32.0546 53.626C32.5906 53.626 33.0246 53.192 33.0246 52.657V42.805L41.2476 34.582C41.0566 35.879 41.1126 37.234 41.4586 38.582C42.4306 42.34 45.8256 44.842 49.5346 44.842C50.2176 44.842 50.9106 44.758 51.6016 44.58C53.3756 44.125 54.8656 43.004 55.7986 41.426C56.7316 39.848 56.9936 38 56.5386 36.227C56.0886 34.471 54.8716 33.073 53.2026 32.389C52.7056 32.186 52.1406 32.424 51.9376 32.918C51.7346 33.416 51.9726 33.981 52.4686 34.184C53.5646 34.633 54.3636 35.553 54.6596 36.709C54.9866 37.98 54.7976 39.307 54.1286 40.439C53.4596 41.571 52.3906 42.375 51.1176 42.701C47.7086 43.578 44.2176 41.512 43.3356 38.099C42.6806 35.546 43.3076 32.966 44.8026 31.025L46.3396 29.488C47.1866 28.845 48.1726 28.355 49.2656 28.074C54.8936 26.627 60.6446 30.035 62.0896 35.664C62.2226 36.182 62.7496 36.494 63.2706 36.361C63.7866 36.229 64.0996 35.7 63.9666 35.18ZM32.0536 41.032L17.9086 26.885L32.0546 12.74L46.1996 26.885L45.0246 28.059C44.4066 28.547 43.8566 29.104 43.3716 29.713L32.0536 41.032Z" fill="#F4E5C7"/>
<path d="M130.963 35.18C129.952 31.244 127.156 28.241 123.67 26.784C124.203 26.559 124.725 26.302 125.232 26.001C128.098 24.306 130.134 21.593 130.963 18.362C131.096 17.844 130.783 17.315 130.264 17.182C129.745 17.051 129.217 17.362 129.084 17.879C128.384 20.608 126.665 22.899 124.244 24.332C121.823 25.764 118.987 26.168 116.261 25.467C111.863 24.338 109.202 19.842 110.33 15.446C111.212 12.032 114.703 9.964 118.113 10.841C120.74 11.517 122.329 14.204 121.654 16.835C121.358 17.991 120.559 18.911 119.463 19.36C118.967 19.561 118.73 20.128 118.932 20.624C119.135 21.12 119.701 21.358 120.197 21.155C121.867 20.471 123.083 19.073 123.533 17.317C124.473 13.651 122.259 9.903 118.596 8.962C114.153 7.823 109.602 10.515 108.452 14.964C108.081 16.409 108.051 17.86 108.294 19.241L100.022 10.968V0.969C100.022 0.434 99.5882 0 99.0522 0C98.5162 0 98.0822 0.434 98.0822 0.969V10.967L89.6662 19.383C89.9382 17.959 89.9202 16.457 89.5372 14.961C88.3872 10.512 83.8372 7.822 79.3942 8.961C75.7312 9.902 73.5172 13.65 74.4562 17.316C74.9072 19.072 76.1232 20.47 77.7922 21.154C78.2882 21.357 78.8542 21.119 79.0572 20.623C79.2602 20.127 79.0222 19.56 78.5262 19.359C77.4302 18.91 76.6312 17.99 76.3352 16.832C75.6602 14.203 77.2492 11.516 79.8762 10.84C83.2882 9.965 86.7782 12.031 87.6592 15.444C88.7872 19.842 86.1272 24.339 81.7292 25.467C79.0012 26.168 76.1672 25.764 73.7462 24.332C71.3252 22.898 69.6062 20.607 68.9062 17.879C68.7722 17.361 68.2442 17.049 67.7262 17.182C67.2072 17.315 66.8942 17.844 67.0272 18.362C67.8572 21.592 69.8922 24.305 72.7582 26.001C73.2602 26.3 73.7792 26.558 74.3082 26.778C73.7802 27.001 73.2602 27.247 72.7582 27.544C69.8922 29.239 67.8562 31.952 67.0272 35.181C66.8942 35.701 67.2072 36.23 67.7262 36.363C68.2482 36.498 68.7722 36.183 68.9062 35.666C69.6062 32.937 71.3252 30.645 73.7462 29.213C76.1672 27.781 79.0032 27.379 81.7292 28.076C86.1272 29.205 88.7882 33.703 87.6602 38.099C86.7772 41.513 83.2862 43.578 79.8772 42.703C78.6062 42.377 77.5362 41.574 76.8672 40.441C76.1982 39.308 76.0102 37.982 76.3362 36.709C76.6322 35.555 77.4312 34.635 78.5272 34.186C79.0232 33.983 79.2602 33.418 79.0582 32.92C78.8552 32.426 78.2902 32.19 77.7932 32.391C76.1242 33.075 74.9072 34.473 74.4572 36.229C74.0022 38.002 74.2652 39.85 75.1972 41.428C76.1292 43.006 77.6202 44.127 79.3942 44.582C80.0852 44.76 80.7792 44.844 81.4612 44.844C85.1692 44.844 88.5662 42.34 89.5382 38.582C89.8962 37.187 89.9412 35.785 89.7252 34.447L98.0812 42.802V52.657C98.0812 53.192 98.5152 53.626 99.0512 53.626C99.5872 53.626 100.021 53.192 100.021 52.657V42.805L108.244 34.582C108.053 35.879 108.109 37.234 108.455 38.582C109.427 42.34 112.822 44.842 116.531 44.842C117.214 44.842 117.907 44.758 118.598 44.58C120.372 44.125 121.862 43.004 122.795 41.426C123.728 39.848 123.99 38 123.535 36.227C123.085 34.471 121.868 33.073 120.199 32.389C119.702 32.186 119.137 32.424 118.934 32.918C118.731 33.416 118.969 33.981 119.465 34.184C120.561 34.633 121.36 35.553 121.656 36.709C121.983 37.98 121.794 39.307 121.125 40.439C120.456 41.571 119.387 42.375 118.114 42.701C114.705 43.578 111.214 41.512 110.332 38.099C109.677 35.546 110.304 32.966 111.799 31.025L113.336 29.488C114.183 28.845 115.169 28.355 116.262 28.074C121.89 26.627 127.641 30.035 129.086 35.664C129.219 36.182 129.746 36.494 130.267 36.361C130.783 36.229 131.096 35.7 130.963 35.18ZM99.0502 41.032L84.9052 26.885L99.0512 12.74L113.196 26.885L112.021 28.059C111.403 28.547 110.853 29.104 110.368 29.713L99.0502 41.032Z" fill="#F4E5C7"/>
<path d="M197.96 35.18C196.949 31.244 194.153 28.241 190.667 26.784C191.2 26.559 191.722 26.302 192.229 26.001C195.095 24.306 197.131 21.593 197.96 18.362C198.093 17.844 197.78 17.315 197.261 17.182C196.742 17.051 196.214 17.362 196.081 17.879C195.381 20.608 193.662 22.899 191.241 24.332C188.82 25.764 185.984 26.168 183.258 25.467C178.86 24.338 176.199 19.842 177.327 15.446C178.209 12.032 181.7 9.964 185.11 10.841C187.737 11.517 189.326 14.204 188.651 16.835C188.355 17.991 187.556 18.911 186.46 19.36C185.964 19.561 185.727 20.128 185.929 20.624C186.132 21.12 186.698 21.358 187.194 21.155C188.864 20.471 190.08 19.073 190.53 17.317C191.47 13.651 189.256 9.903 185.593 8.962C181.15 7.823 176.599 10.515 175.449 14.964C175.078 16.409 175.048 17.86 175.291 19.241L167.019 10.968V0.969C167.019 0.434 166.585 0 166.049 0C165.513 0 165.079 0.434 165.079 0.969V10.967L156.663 19.383C156.935 17.959 156.917 16.457 156.534 14.961C155.384 10.512 150.834 7.822 146.391 8.961C142.728 9.902 140.514 13.65 141.453 17.316C141.904 19.072 143.12 20.47 144.789 21.154C145.285 21.357 145.851 21.119 146.054 20.623C146.257 20.127 146.019 19.56 145.523 19.359C144.427 18.91 143.628 17.99 143.332 16.832C142.657 14.203 144.246 11.516 146.873 10.84C150.285 9.965 153.775 12.031 154.656 15.444C155.784 19.842 153.124 24.339 148.726 25.467C145.998 26.168 143.164 25.764 140.743 24.332C138.322 22.898 136.603 20.607 135.903 17.879C135.769 17.361 135.241 17.049 134.723 17.182C134.204 17.315 133.891 17.844 134.024 18.362C134.854 21.592 136.889 24.305 139.755 26.001C140.257 26.3 140.776 26.558 141.305 26.778C140.777 27.001 140.257 27.247 139.755 27.544C136.889 29.239 134.853 31.952 134.024 35.181C133.891 35.701 134.204 36.23 134.723 36.363C135.245 36.498 135.769 36.183 135.903 35.666C136.603 32.937 138.322 30.645 140.743 29.213C143.164 27.781 146 27.379 148.726 28.076C153.124 29.205 155.785 33.703 154.657 38.099C153.774 41.513 150.283 43.578 146.874 42.703C145.603 42.377 144.533 41.574 143.864 40.441C143.195 39.308 143.007 37.982 143.333 36.709C143.629 35.555 144.428 34.635 145.524 34.186C146.02 33.983 146.257 33.418 146.055 32.92C145.852 32.426 145.287 32.19 144.79 32.391C143.121 33.075 141.904 34.473 141.454 36.229C140.999 38.002 141.262 39.85 142.194 41.428C143.126 43.006 144.617 44.127 146.391 44.582C147.082 44.76 147.776 44.844 148.458 44.844C152.166 44.844 155.563 42.34 156.535 38.582C156.893 37.187 156.938 35.785 156.722 34.447L165.078 42.802V52.657C165.078 53.192 165.512 53.626 166.048 53.626C166.584 53.626 167.018 53.192 167.018 52.657V42.805L175.241 34.582C175.05 35.879 175.106 37.234 175.452 38.582C176.424 42.34 179.819 44.842 183.528 44.842C184.211 44.842 184.904 44.758 185.595 44.58C187.369 44.125 188.859 43.004 189.792 41.426C190.725 39.848 190.987 38 190.532 36.227C190.082 34.471 188.865 33.073 187.196 32.389C186.699 32.186 186.134 32.424 185.931 32.918C185.728 33.416 185.966 33.981 186.462 34.184C187.558 34.633 188.357 35.553 188.653 36.709C188.98 37.98 188.791 39.307 188.122 40.439C187.453 41.571 186.384 42.375 185.111 42.701C181.702 43.578 178.211 41.512 177.329 38.099C176.674 35.546 177.301 32.966 178.796 31.025L180.333 29.488C181.18 28.845 182.166 28.355 183.259 28.074C188.887 26.627 194.638 30.035 196.083 35.664C196.216 36.182 196.743 36.494 197.264 36.361C197.78 36.229 198.093 35.7 197.96 35.18ZM166.047 41.032L151.902 26.885L166.048 12.74L180.193 26.885L179.018 28.059C178.4 28.547 177.85 29.104 177.365 29.713L166.047 41.032Z" fill="#F4E5C7"/>
<path d="M264.956 35.18C263.945 31.244 261.149 28.241 257.663 26.784C258.196 26.559 258.718 26.302 259.225 26.001C262.091 24.306 264.127 21.593 264.956 18.362C265.089 17.844 264.776 17.315 264.257 17.182C263.738 17.051 263.21 17.362 263.077 17.879C262.377 20.608 260.658 22.899 258.237 24.332C255.816 25.764 252.98 26.168 250.254 25.467C245.856 24.338 243.195 19.842 244.323 15.446C245.205 12.032 248.696 9.964 252.106 10.841C254.733 11.517 256.322 14.204 255.647 16.835C255.351 17.991 254.552 18.911 253.456 19.36C252.96 19.561 252.723 20.128 252.925 20.624C253.128 21.12 253.694 21.358 254.19 21.155C255.86 20.471 257.076 19.073 257.526 17.317C258.466 13.651 256.252 9.903 252.589 8.962C248.146 7.823 243.595 10.515 242.445 14.964C242.074 16.409 242.044 17.86 242.287 19.241L234.015 10.968V0.969C234.015 0.434 233.581 0 233.045 0C232.509 0 232.075 0.434 232.075 0.969V10.967L223.659 19.383C223.931 17.959 223.913 16.457 223.53 14.961C222.38 10.512 217.83 7.822 213.387 8.961C209.724 9.902 207.51 13.65 208.449 17.316C208.9 19.072 210.116 20.47 211.785 21.154C212.281 21.357 212.847 21.119 213.05 20.623C213.253 20.127 213.015 19.56 212.519 19.359C211.423 18.91 210.624 17.99 210.328 16.832C209.653 14.203 211.242 11.516 213.869 10.84C217.281 9.965 220.771 12.031 221.652 15.444C222.78 19.842 220.12 24.339 215.722 25.467C212.994 26.168 210.16 25.764 207.739 24.332C205.318 22.898 203.599 20.607 202.899 17.879C202.765 17.361 202.237 17.049 201.719 17.182C201.2 17.315 200.887 17.844 201.02 18.362C201.85 21.592 203.885 24.305 206.751 26.001C207.253 26.3 207.772 26.558 208.301 26.778C207.773 27.001 207.253 27.247 206.751 27.544C203.885 29.239 201.849 31.952 201.02 35.181C200.887 35.701 201.2 36.23 201.719 36.363C202.241 36.498 202.765 36.183 202.899 35.666C203.599 32.937 205.318 30.645 207.739 29.213C210.16 27.781 212.996 27.379 215.722 28.076C220.12 29.205 222.781 33.703 221.653 38.099C220.77 41.513 217.279 43.578 213.87 42.703C212.599 42.377 211.529 41.574 210.86 40.441C210.191 39.308 210.003 37.982 210.329 36.709C210.625 35.555 211.424 34.635 212.52 34.186C213.016 33.983 213.253 33.418 213.051 32.92C212.848 32.426 212.283 32.19 211.786 32.391C210.117 33.075 208.9 34.473 208.45 36.229C207.995 38.002 208.258 39.85 209.19 41.428C210.122 43.006 211.613 44.127 213.387 44.582C214.078 44.76 214.772 44.844 215.454 44.844C219.162 44.844 222.559 42.34 223.531 38.582C223.889 37.187 223.934 35.785 223.718 34.447L232.074 42.802V52.657C232.074 53.192 232.508 53.626 233.044 53.626C233.58 53.626 234.014 53.192 234.014 52.657V42.805L242.237 34.582C242.046 35.879 242.102 37.234 242.448 38.582C243.42 42.34 246.815 44.842 250.524 44.842C251.207 44.842 251.9 44.758 252.591 44.58C254.365 44.125 255.855 43.004 256.788 41.426C257.721 39.848 257.983 38 257.528 36.227C257.078 34.471 255.861 33.073 254.192 32.389C253.695 32.186 253.13 32.424 252.927 32.918C252.724 33.416 252.962 33.981 253.458 34.184C254.554 34.633 255.353 35.553 255.649 36.709C255.976 37.98 255.787 39.307 255.118 40.439C254.449 41.571 253.38 42.375 252.107 42.701C248.698 43.578 245.207 41.512 244.325 38.099C243.67 35.546 244.297 32.966 245.792 31.025L247.329 29.488C248.176 28.845 249.162 28.355 250.255 28.074C255.883 26.627 261.634 30.035 263.079 35.664C263.212 36.182 263.739 36.494 264.26 36.361C264.776 36.229 265.089 35.7 264.956 35.18ZM233.043 41.032L218.898 26.885L233.044 12.74L247.189 26.885L246.014 28.059C245.396 28.547 244.846 29.104 244.361 29.713L233.043 41.032Z" fill="#F4E5C7"/>
<path d="M331.953 35.18C330.942 31.244 328.146 28.241 324.66 26.784C325.193 26.559 325.715 26.302 326.222 26.001C329.088 24.306 331.124 21.593 331.953 18.362C332.086 17.844 331.773 17.315 331.254 17.182C330.735 17.051 330.207 17.362 330.074 17.879C329.374 20.608 327.655 22.899 325.234 24.332C322.813 25.764 319.977 26.168 317.251 25.467C312.853 24.338 310.192 19.842 311.32 15.446C312.202 12.032 315.693 9.964 319.103 10.841C321.73 11.517 323.319 14.204 322.644 16.835C322.348 17.991 321.549 18.911 320.453 19.36C319.957 19.561 319.72 20.128 319.922 20.624C320.125 21.12 320.691 21.358 321.187 21.155C322.857 20.471 324.073 19.073 324.523 17.317C325.463 13.651 323.249 9.903 319.586 8.962C315.143 7.823 310.592 10.515 309.442 14.964C309.071 16.409 309.041 17.86 309.284 19.241L301.012 10.968V0.969C301.012 0.434 300.578 0 300.042 0C299.506 0 299.072 0.434 299.072 0.969V10.967L290.656 19.383C290.928 17.959 290.91 16.457 290.527 14.961C289.377 10.512 284.827 7.822 280.384 8.961C276.721 9.902 274.507 13.65 275.446 17.316C275.897 19.072 277.113 20.47 278.782 21.154C279.278 21.357 279.844 21.119 280.047 20.623C280.25 20.127 280.012 19.56 279.516 19.359C278.42 18.91 277.621 17.99 277.325 16.832C276.65 14.203 278.239 11.516 280.866 10.84C284.278 9.965 287.768 12.031 288.649 15.444C289.777 19.842 287.117 24.339 282.719 25.467C279.991 26.168 277.157 25.764 274.736 24.332C272.315 22.898 270.596 20.607 269.896 17.879C269.762 17.361 269.234 17.049 268.716 17.182C268.197 17.315 267.884 17.844 268.017 18.362C268.847 21.592 270.882 24.305 273.748 26.001C274.25 26.3 274.769 26.558 275.298 26.778C274.77 27.001 274.25 27.247 273.748 27.544C270.882 29.239 268.846 31.952 268.017 35.181C267.884 35.701 268.197 36.23 268.716 36.363C269.238 36.498 269.762 36.183 269.896 35.666C270.596 32.937 272.315 30.645 274.736 29.213C277.157 27.781 279.993 27.379 282.719 28.076C287.117 29.205 289.778 33.703 288.65 38.099C287.767 41.513 284.276 43.578 280.867 42.703C279.596 42.377 278.526 41.574 277.857 40.441C277.188 39.308 277 37.982 277.326 36.709C277.622 35.555 278.421 34.635 279.517 34.186C280.013 33.983 280.25 33.418 280.048 32.92C279.845 32.426 279.28 32.19 278.783 32.391C277.114 33.075 275.897 34.473 275.447 36.229C274.992 38.002 275.255 39.85 276.187 41.428C277.119 43.006 278.61 44.127 280.384 44.582C281.075 44.76 281.769 44.844 282.451 44.844C286.159 44.844 289.556 42.34 290.528 38.582C290.886 37.187 290.931 35.785 290.715 34.447L299.071 42.802V52.657C299.071 53.192 299.505 53.626 300.041 53.626C300.577 53.626 301.011 53.192 301.011 52.657V42.805L309.234 34.582C309.043 35.879 309.099 37.234 309.445 38.582C310.417 42.34 313.812 44.842 317.521 44.842C318.204 44.842 318.897 44.758 319.588 44.58C321.362 44.125 322.852 43.004 323.785 41.426C324.718 39.848 324.98 38 324.525 36.227C324.075 34.471 322.858 33.073 321.189 32.389C320.692 32.186 320.127 32.424 319.924 32.918C319.721 33.416 319.959 33.981 320.455 34.184C321.551 34.633 322.35 35.553 322.646 36.709C322.973 37.98 322.784 39.307 322.115 40.439C321.446 41.571 320.377 42.375 319.104 42.701C315.695 43.578 312.204 41.512 311.322 38.099C310.667 35.546 311.294 32.966 312.789 31.025L314.326 29.488C315.173 28.845 316.159 28.355 317.252 28.074C322.88 26.627 328.631 30.035 330.076 35.664C330.209 36.182 330.736 36.494 331.257 36.361C331.773 36.229 332.086 35.7 331.953 35.18ZM300.04 41.032L285.895 26.885L300.041 12.74L314.186 26.885L313.011 28.059C312.393 28.547 311.843 29.104 311.358 29.713L300.04 41.032Z" fill="#F4E5C7"/>
<path d="M398.95 35.18C397.939 31.244 395.143 28.241 391.657 26.784C392.19 26.559 392.712 26.302 393.219 26.001C396.085 24.306 398.121 21.593 398.95 18.362C399.083 17.844 398.77 17.315 398.251 17.182C397.732 17.051 397.204 17.362 397.071 17.879C396.371 20.608 394.652 22.899 392.231 24.332C389.81 25.764 386.974 26.168 384.248 25.467C379.85 24.338 377.189 19.842 378.317 15.446C379.199 12.032 382.69 9.964 386.1 10.841C388.727 11.517 390.316 14.204 389.641 16.835C389.345 17.991 388.546 18.911 387.45 19.36C386.954 19.561 386.717 20.128 386.919 20.624C387.122 21.12 387.688 21.358 388.184 21.155C389.854 20.471 391.07 19.073 391.52 17.317C392.46 13.651 390.246 9.903 386.583 8.962C382.14 7.823 377.589 10.515 376.439 14.964C376.068 16.409 376.038 17.86 376.281 19.241L368.009 10.968V0.969C368.009 0.434 367.575 0 367.039 0C366.503 0 366.069 0.434 366.069 0.969V10.967L357.653 19.383C357.925 17.959 357.907 16.457 357.524 14.961C356.374 10.512 351.824 7.822 347.381 8.961C343.718 9.902 341.504 13.65 342.443 17.316C342.894 19.072 344.11 20.47 345.779 21.154C346.275 21.357 346.841 21.119 347.044 20.623C347.247 20.127 347.009 19.56 346.513 19.359C345.417 18.91 344.618 17.99 344.322 16.832C343.647 14.203 345.236 11.516 347.863 10.84C351.275 9.965 354.765 12.031 355.646 15.444C356.774 19.842 354.114 24.339 349.716 25.467C346.988 26.168 344.154 25.764 341.733 24.332C339.312 22.898 337.593 20.607 336.893 17.879C336.759 17.361 336.231 17.049 335.713 17.182C335.194 17.315 334.881 17.844 335.014 18.362C335.844 21.592 337.879 24.305 340.745 26.001C341.247 26.3 341.766 26.558 342.295 26.778C341.767 27.001 341.247 27.247 340.745 27.544C337.879 29.239 335.843 31.952 335.014 35.181C334.881 35.701 335.194 36.23 335.713 36.363C336.235 36.498 336.759 36.183 336.893 35.666C337.593 32.937 339.312 30.645 341.733 29.213C344.154 27.781 346.99 27.379 349.716 28.076C354.114 29.205 356.775 33.703 355.647 38.099C354.764 41.513 351.273 43.578 347.864 42.703C346.593 42.377 345.523 41.574 344.854 40.441C344.185 39.308 343.997 37.982 344.323 36.709C344.619 35.555 345.418 34.635 346.514 34.186C347.01 33.983 347.247 33.418 347.045 32.92C346.842 32.426 346.277 32.19 345.78 32.391C344.111 33.075 342.894 34.473 342.444 36.229C341.989 38.002 342.252 39.85 343.184 41.428C344.116 43.006 345.607 44.127 347.381 44.582C348.072 44.76 348.766 44.844 349.448 44.844C353.156 44.844 356.553 42.34 357.525 38.582C357.883 37.187 357.928 35.785 357.712 34.447L366.068 42.802V52.657C366.068 53.192 366.502 53.626 367.038 53.626C367.574 53.626 368.008 53.192 368.008 52.657V42.805L376.231 34.582C376.04 35.879 376.096 37.234 376.442 38.582C377.414 42.34 380.809 44.842 384.518 44.842C385.201 44.842 385.894 44.758 386.585 44.58C388.359 44.125 389.849 43.004 390.782 41.426C391.715 39.848 391.977 38 391.522 36.227C391.072 34.471 389.855 33.073 388.186 32.389C387.689 32.186 387.124 32.424 386.921 32.918C386.718 33.416 386.956 33.981 387.452 34.184C388.548 34.633 389.347 35.553 389.643 36.709C389.97 37.98 389.781 39.307 389.112 40.439C388.443 41.571 387.374 42.375 386.101 42.701C382.692 43.578 379.201 41.512 378.319 38.099C377.664 35.546 378.291 32.966 379.786 31.025L381.323 29.488C382.17 28.845 383.156 28.355 384.249 28.074C389.877 26.627 395.628 30.035 397.073 35.664C397.206 36.182 397.733 36.494 398.254 36.361C398.77 36.229 399.083 35.7 398.95 35.18ZM367.037 41.032L352.892 26.885L367.038 12.74L381.183 26.885L380.008 28.059C379.39 28.547 378.84 29.104 378.355 29.713L367.037 41.032Z" fill="#F4E5C7"/>
<path d="M465.946 35.18C464.935 31.244 462.139 28.241 458.653 26.784C459.186 26.559 459.708 26.302 460.215 26.001C463.081 24.306 465.117 21.593 465.946 18.362C466.079 17.844 465.766 17.315 465.247 17.182C464.728 17.051 464.2 17.362 464.067 17.879C463.367 20.608 461.648 22.899 459.227 24.332C456.806 25.764 453.97 26.168 451.244 25.467C446.846 24.338 444.185 19.842 445.313 15.446C446.195 12.032 449.686 9.964 453.096 10.841C455.723 11.517 457.312 14.204 456.637 16.835C456.341 17.991 455.542 18.911 454.446 19.36C453.95 19.561 453.713 20.128 453.915 20.624C454.118 21.12 454.684 21.358 455.18 21.155C456.85 20.471 458.066 19.073 458.516 17.317C459.456 13.651 457.242 9.903 453.579 8.962C449.136 7.823 444.585 10.515 443.435 14.964C443.064 16.409 443.034 17.86 443.277 19.241L435.005 10.968V0.969C435.005 0.434 434.571 0 434.035 0C433.499 0 433.065 0.434 433.065 0.969V10.967L424.649 19.383C424.921 17.959 424.903 16.457 424.52 14.961C423.37 10.512 418.82 7.822 414.377 8.961C410.714 9.902 408.5 13.65 409.439 17.316C409.89 19.072 411.106 20.47 412.775 21.154C413.271 21.357 413.837 21.119 414.04 20.623C414.243 20.127 414.005 19.56 413.509 19.359C412.413 18.91 411.614 17.99 411.318 16.832C410.643 14.203 412.232 11.516 414.859 10.84C418.271 9.965 421.761 12.031 422.642 15.444C423.77 19.842 421.11 24.339 416.712 25.467C413.984 26.168 411.15 25.764 408.729 24.332C406.308 22.898 404.589 20.607 403.889 17.879C403.755 17.361 403.227 17.049 402.709 17.182C402.19 17.315 401.877 17.844 402.01 18.362C402.84 21.592 404.875 24.305 407.741 26.001C408.243 26.3 408.762 26.558 409.291 26.778C408.763 27.001 408.243 27.247 407.741 27.544C404.875 29.239 402.839 31.952 402.01 35.181C401.877 35.701 402.19 36.23 402.709 36.363C403.231 36.498 403.755 36.183 403.889 35.666C404.589 32.937 406.308 30.645 408.729 29.213C411.15 27.781 413.986 27.379 416.712 28.076C421.11 29.205 423.771 33.703 422.643 38.099C421.76 41.513 418.269 43.578 414.86 42.703C413.589 42.377 412.519 41.574 411.85 40.441C411.181 39.308 410.993 37.982 411.319 36.709C411.615 35.555 412.414 34.635 413.51 34.186C414.006 33.983 414.243 33.418 414.041 32.92C413.838 32.426 413.273 32.19 412.776 32.391C411.107 33.075 409.89 34.473 409.44 36.229C408.985 38.002 409.248 39.85 410.18 41.428C411.112 43.006 412.603 44.127 414.377 44.582C415.068 44.76 415.762 44.844 416.444 44.844C420.152 44.844 423.549 42.34 424.521 38.582C424.879 37.187 424.924 35.785 424.708 34.447L433.064 42.802V52.657C433.064 53.192 433.498 53.626 434.034 53.626C434.57 53.626 435.004 53.192 435.004 52.657V42.805L443.227 34.582C443.036 35.879 443.092 37.234 443.438 38.582C444.41 42.34 447.805 44.842 451.514 44.842C452.197 44.842 452.89 44.758 453.581 44.58C455.355 44.125 456.845 43.004 457.778 41.426C458.711 39.848 458.973 38 458.518 36.227C458.068 34.471 456.851 33.073 455.182 32.389C454.685 32.186 454.12 32.424 453.917 32.918C453.714 33.416 453.952 33.981 454.448 34.184C455.544 34.633 456.343 35.553 456.639 36.709C456.966 37.98 456.777 39.307 456.108 40.439C455.439 41.571 454.37 42.375 453.097 42.701C449.688 43.578 446.197 41.512 445.315 38.099C444.66 35.546 445.287 32.966 446.782 31.025L448.319 29.488C449.166 28.845 450.152 28.355 451.245 28.074C456.873 26.627 462.624 30.035 464.069 35.664C464.202 36.182 464.729 36.494 465.25 36.361C465.766 36.229 466.079 35.7 465.946 35.18ZM434.033 41.032L419.888 26.885L434.034 12.74L448.179 26.885L447.004 28.059C446.386 28.547 445.836 29.104 445.351 29.713L434.033 41.032Z" fill="#F4E5C7"/>
<path d="M532.943 35.18C531.932 31.244 529.136 28.241 525.65 26.784C526.183 26.559 526.705 26.302 527.212 26.001C530.078 24.306 532.114 21.593 532.943 18.362C533.076 17.844 532.763 17.315 532.244 17.182C531.725 17.051 531.197 17.362 531.064 17.879C530.364 20.608 528.645 22.899 526.224 24.332C523.803 25.764 520.967 26.168 518.241 25.467C513.843 24.338 511.182 19.842 512.31 15.446C513.192 12.032 516.683 9.964 520.093 10.841C522.72 11.517 524.309 14.204 523.634 16.835C523.338 17.991 522.539 18.911 521.443 19.36C520.947 19.561 520.71 20.128 520.912 20.624C521.115 21.12 521.681 21.358 522.177 21.155C523.847 20.471 525.063 19.073 525.513 17.317C526.453 13.651 524.239 9.903 520.576 8.962C516.133 7.823 511.582 10.515 510.432 14.964C510.061 16.409 510.031 17.86 510.274 19.241L502.002 10.968V0.969C502.002 0.434 501.568 0 501.032 0C500.496 0 500.062 0.434 500.062 0.969V10.967L491.646 19.383C491.918 17.959 491.9 16.457 491.517 14.961C490.367 10.512 485.817 7.822 481.374 8.961C477.711 9.902 475.497 13.65 476.436 17.316C476.887 19.072 478.103 20.47 479.772 21.154C480.268 21.357 480.834 21.119 481.037 20.623C481.24 20.127 481.002 19.56 480.506 19.359C479.41 18.91 478.611 17.99 478.315 16.832C477.64 14.203 479.229 11.516 481.856 10.84C485.268 9.965 488.758 12.031 489.639 15.444C490.767 19.842 488.107 24.339 483.709 25.467C480.981 26.168 478.147 25.764 475.726 24.332C473.305 22.898 471.586 20.607 470.886 17.879C470.752 17.361 470.224 17.049 469.706 17.182C469.187 17.315 468.874 17.844 469.007 18.362C469.837 21.592 471.872 24.305 474.738 26.001C475.24 26.3 475.759 26.558 476.288 26.778C475.76 27.001 475.24 27.247 474.738 27.544C471.872 29.239 469.836 31.952 469.007 35.181C468.874 35.701 469.187 36.23 469.706 36.363C470.228 36.498 470.752 36.183 470.886 35.666C471.586 32.937 473.305 30.645 475.726 29.213C478.147 27.781 480.983 27.379 483.709 28.076C488.107 29.205 490.768 33.703 489.64 38.099C488.757 41.513 485.266 43.578 481.857 42.703C480.586 42.377 479.516 41.574 478.847 40.441C478.178 39.308 477.99 37.982 478.316 36.709C478.612 35.555 479.411 34.635 480.507 34.186C481.003 33.983 481.24 33.418 481.038 32.92C480.835 32.426 480.27 32.19 479.773 32.391C478.104 33.075 476.887 34.473 476.437 36.229C475.982 38.002 476.245 39.85 477.177 41.428C478.109 43.006 479.6 44.127 481.374 44.582C482.065 44.76 482.759 44.844 483.441 44.844C487.149 44.844 490.546 42.34 491.518 38.582C491.876 37.187 491.921 35.785 491.705 34.447L500.061 42.802V52.657C500.061 53.192 500.495 53.626 501.031 53.626C501.567 53.626 502.001 53.192 502.001 52.657V42.805L510.224 34.582C510.033 35.879 510.089 37.234 510.435 38.582C511.407 42.34 514.802 44.842 518.511 44.842C519.194 44.842 519.887 44.758 520.578 44.58C522.352 44.125 523.842 43.004 524.775 41.426C525.708 39.848 525.97 38 525.515 36.227C525.065 34.471 523.848 33.073 522.179 32.389C521.682 32.186 521.117 32.424 520.914 32.918C520.711 33.416 520.949 33.981 521.445 34.184C522.541 34.633 523.34 35.553 523.636 36.709C523.963 37.98 523.774 39.307 523.105 40.439C522.436 41.571 521.367 42.375 520.094 42.701C516.685 43.578 513.194 41.512 512.312 38.099C511.657 35.546 512.284 32.966 513.779 31.025L515.316 29.488C516.163 28.845 517.149 28.355 518.242 28.074C523.87 26.627 529.621 30.035 531.066 35.664C531.199 36.182 531.726 36.494 532.247 36.361C532.763 36.229 533.076 35.7 532.943 35.18ZM501.03 41.032L486.885 26.885L501.031 12.74L515.176 26.885L514.001 28.059C513.383 28.547 512.833 29.104 512.348 29.713L501.03 41.032Z" fill="#F4E5C7"/>
<path d="M599.939 35.18C598.928 31.244 596.132 28.241 592.646 26.784C593.179 26.559 593.701 26.302 594.208 26.001C597.074 24.306 599.11 21.593 599.939 18.362C600.072 17.844 599.759 17.315 599.24 17.182C598.721 17.051 598.193 17.362 598.06 17.879C597.36 20.608 595.641 22.899 593.22 24.332C590.799 25.764 587.963 26.168 585.237 25.467C580.839 24.338 578.178 19.842 579.306 15.446C580.188 12.032 583.679 9.964 587.089 10.841C589.716 11.517 591.305 14.204 590.63 16.835C590.334 17.991 589.535 18.911 588.439 19.36C587.943 19.561 587.706 20.128 587.908 20.624C588.111 21.12 588.677 21.358 589.173 21.155C590.843 20.471 592.059 19.073 592.509 17.317C593.449 13.651 591.235 9.903 587.572 8.962C583.129 7.823 578.578 10.515 577.428 14.964C577.057 16.409 577.027 17.86 577.27 19.241L568.998 10.968V0.969C568.998 0.434 568.564 0 568.028 0C567.492 0 567.058 0.434 567.058 0.969V10.967L558.642 19.383C558.914 17.959 558.896 16.457 558.513 14.961C557.363 10.512 552.813 7.822 548.37 8.961C544.707 9.902 542.493 13.65 543.432 17.316C543.883 19.072 545.099 20.47 546.768 21.154C547.264 21.357 547.83 21.119 548.033 20.623C548.236 20.127 547.998 19.56 547.502 19.359C546.406 18.91 545.607 17.99 545.311 16.832C544.636 14.203 546.225 11.516 548.852 10.84C552.264 9.965 555.754 12.031 556.635 15.444C557.763 19.842 555.103 24.339 550.705 25.467C547.977 26.168 545.143 25.764 542.722 24.332C540.301 22.898 538.582 20.607 537.882 17.879C537.748 17.361 537.22 17.049 536.702 17.182C536.183 17.315 535.87 17.844 536.003 18.362C536.833 21.592 538.868 24.305 541.734 26.001C542.236 26.3 542.755 26.558 543.284 26.778C542.756 27.001 542.236 27.247 541.734 27.544C538.868 29.239 536.832 31.952 536.003 35.181C535.87 35.701 536.183 36.23 536.702 36.363C537.224 36.498 537.748 36.183 537.882 35.666C538.582 32.937 540.301 30.645 542.722 29.213C545.143 27.781 547.979 27.379 550.705 28.076C555.103 29.205 557.764 33.703 556.636 38.099C555.753 41.513 552.262 43.578 548.853 42.703C547.582 42.377 546.512 41.574 545.843 40.441C545.174 39.308 544.986 37.982 545.312 36.709C545.608 35.555 546.407 34.635 547.503 34.186C547.999 33.983 548.236 33.418 548.034 32.92C547.831 32.426 547.266 32.19 546.769 32.391C545.1 33.075 543.883 34.473 543.433 36.229C542.978 38.002 543.241 39.85 544.173 41.428C545.105 43.006 546.596 44.127 548.37 44.582C549.061 44.76 549.755 44.844 550.437 44.844C554.145 44.844 557.542 42.34 558.514 38.582C558.872 37.187 558.917 35.785 558.701 34.447L567.057 42.802V52.657C567.057 53.192 567.491 53.626 568.027 53.626C568.563 53.626 568.997 53.192 568.997 52.657V42.805L577.22 34.582C577.029 35.879 577.085 37.234 577.431 38.582C578.403 42.34 581.798 44.842 585.507 44.842C586.19 44.842 586.883 44.758 587.574 44.58C589.348 44.125 590.838 43.004 591.771 41.426C592.704 39.848 592.966 38 592.511 36.227C592.061 34.471 590.844 33.073 589.175 32.389C588.678 32.186 588.113 32.424 587.91 32.918C587.707 33.416 587.945 33.981 588.441 34.184C589.537 34.633 590.336 35.553 590.632 36.709C590.959 37.98 590.77 39.307 590.101 40.439C589.432 41.571 588.363 42.375 587.09 42.701C583.681 43.578 580.19 41.512 579.308 38.099C578.653 35.546 579.28 32.966 580.775 31.025L582.312 29.488C583.159 28.845 584.145 28.355 585.238 28.074C590.866 26.627 596.617 30.035 598.062 35.664C598.195 36.182 598.722 36.494 599.243 36.361C599.759 36.229 600.072 35.7 599.939 35.18ZM568.026 41.032L553.881 26.885L568.027 12.74L582.172 26.885L580.997 28.059C580.379 28.547 579.829 29.104 579.344 29.713L568.026 41.032Z" fill="#F4E5C7"/>
</svg>
