<svg width="20" height="20" viewBox="0 0 20 20" fill="none" xmlns="http://www.w3.org/2000/svg">
<path d="M13.3251 0C11.7879 0 10.4985 1.06855 10.1244 2.49695H0.853724C0.633001 2.49695 0.421318 2.58484 0.265244 2.74128C0.109169 2.89773 0.0214872 3.10992 0.0214872 3.33116C0.0214872 3.55241 0.109169 3.7646 0.265244 3.92104C0.421318 4.07749 0.633001 4.16538 0.853724 4.16538H10.1228C10.495 5.59512 11.786 6.66233 13.3251 6.66233C14.8642 6.66233 16.1603 5.59512 16.5339 4.16538H19.1499C19.3707 4.16538 19.5823 4.07749 19.7384 3.92104C19.8945 3.7646 19.9822 3.55241 19.9822 3.33116C19.9822 3.10992 19.8945 2.89773 19.7384 2.74128C19.5823 2.58484 19.3707 2.49695 19.1499 2.49695H16.5322C16.1568 1.06855 14.8623 0 13.3251 0ZM13.3251 1.6668C14.2533 1.6668 14.9879 2.40481 14.9879 3.33523C14.9879 4.26565 14.2533 5.00204 13.3251 5.00204C12.3969 5.00204 11.6687 4.26565 11.6687 3.33523C11.6687 2.40481 12.3969 1.6668 13.3251 1.6668ZM6.67857 6.66233C5.13893 6.66233 3.8428 7.73553 3.46979 9.16741H0.853724C0.827216 9.16614 0.800662 9.16614 0.774154 9.16741C0.557108 9.18272 0.354664 9.28259 0.210154 9.44563C0.0656443 9.60868 -0.0094473 9.82196 0.000952474 10.0398C0.0113522 10.2577 0.106417 10.4628 0.265798 10.6112C0.425179 10.7597 0.636212 10.8398 0.853724 10.8342H3.47141C3.84682 12.2626 5.14141 13.3312 6.67857 13.3312C8.21572 13.3312 9.51031 12.2626 9.88572 10.8342H19.1499C19.2607 10.8367 19.3708 10.8169 19.4738 10.7762C19.5768 10.7354 19.6707 10.6744 19.7499 10.5968C19.8291 10.5191 19.892 10.4264 19.9349 10.3241C19.9779 10.2217 20 10.1118 20 10.0008C20 9.88979 19.9779 9.77988 19.9349 9.67754C19.892 9.57521 19.8291 9.4825 19.7499 9.40487C19.6707 9.32724 19.5768 9.26624 19.4738 9.22546C19.3708 9.18469 19.2607 9.16495 19.1499 9.16741H9.88735C9.51434 7.73553 8.21821 6.66233 6.67857 6.66233ZM6.67857 8.32913C7.60678 8.32913 8.34142 9.06714 8.34142 9.99756C8.34142 10.928 7.60678 11.6644 6.67857 11.6644C5.75035 11.6644 5.01572 10.928 5.01572 9.99756C5.01572 9.06714 5.75035 8.32913 6.67857 8.32913ZM13.3251 13.3312C11.7855 13.3312 10.4944 14.4044 10.1228 15.8362H0.853724C0.827216 15.835 0.800662 15.835 0.774154 15.8362C0.557111 15.8516 0.35467 15.9514 0.210164 16.1145C0.0656577 16.2775 -0.00943196 16.4908 0.000967694 16.7086C0.0113673 16.9265 0.10643 17.1316 0.265808 17.2801C0.425186 17.4285 0.636214 17.5086 0.853724 17.5031H10.1244C10.4985 18.9315 11.7879 20 13.3251 20C14.8623 20 16.1568 18.9315 16.5322 17.5031H19.1499C19.3673 17.4982 19.574 17.4083 19.726 17.2525C19.878 17.0968 19.9631 16.8875 19.9631 16.6696C19.9631 16.4518 19.878 16.2425 19.726 16.0868C19.574 15.931 19.3673 15.8411 19.1499 15.8362H16.5339C16.1609 14.4044 14.8647 13.3312 13.3251 13.3312ZM13.3251 14.998C14.2533 14.998 14.9879 15.736 14.9879 16.6664C14.9879 17.5968 14.2533 18.3332 13.3251 18.3332C12.3969 18.3332 11.6687 17.5968 11.6687 16.6664C11.6687 15.736 12.3969 14.998 13.3251 14.998Z" fill="black"/>
</svg>
