<svg width="25" height="26" viewBox="0 0 25 26" fill="none" xmlns="http://www.w3.org/2000/svg">
<path fill-rule="evenodd" clip-rule="evenodd" d="M8.07654 18.001C8.07654 17.5001 8.48261 17.094 8.98352 17.094H16.0156C16.5165 17.094 16.9226 17.5001 16.9226 18.001C16.9226 18.5019 16.5165 18.908 16.0156 18.908H8.98352C8.48261 18.908 8.07654 18.5019 8.07654 18.001Z" fill="#302A2A"/>
<path fill-rule="evenodd" clip-rule="evenodd" d="M6.23985 5.71717C5.74095 6.17928 5.29301 6.57647 4.89481 6.92744C4.83861 6.97698 4.78358 7.02545 4.72965 7.07292C4.39237 7.36993 4.09864 7.62859 3.8348 7.87213C3.22373 8.43621 2.83772 8.86212 2.56475 9.33845C2.01754 10.2933 1.81396 11.6323 1.81396 15.0716C1.81396 17.558 1.96279 19.343 2.29908 20.6372C2.62922 21.9075 3.12136 22.6357 3.7733 23.1035C4.45419 23.5923 5.4262 23.8834 6.88996 24.0343C8.35226 24.185 10.1763 24.1861 12.4994 24.1861C14.8225 24.1861 16.6464 24.185 18.1089 24.0343C19.5726 23.8834 20.5445 23.5923 21.2255 23.1035C21.8774 22.6357 22.3696 21.9075 22.6996 20.6372C23.0359 19.343 23.1848 17.558 23.1848 15.0716C23.1848 11.6322 22.9815 10.2932 22.4345 9.3383C22.1617 8.86201 21.7758 8.43613 21.1649 7.87207C20.9009 7.62831 20.6069 7.3694 20.2693 7.07203C20.2156 7.02483 20.1609 6.97665 20.1051 6.92742C19.707 6.57644 19.259 6.17926 18.7601 5.71714C18.4648 5.47865 18.1588 5.22061 17.8417 4.95317C17.1511 4.3706 16.4075 3.74345 15.6054 3.17678C14.4143 2.33539 13.3356 1.81396 12.4655 1.81396C11.5983 1.81396 10.5344 2.33542 9.35897 3.17809C8.59192 3.72802 7.89026 4.32568 7.23094 4.88725C6.89033 5.17737 6.56101 5.45787 6.23985 5.71717ZM8.30203 1.70387C9.51173 0.836585 10.983 0 12.4655 0C13.9439 0 15.4271 0.82997 16.652 1.6952C17.5178 2.30686 18.3743 3.02869 19.0913 3.63295C19.3971 3.89069 19.6777 4.12704 19.9226 4.32432C19.939 4.33755 19.955 4.35135 19.9705 4.36569C20.4614 4.82104 20.9033 5.21295 21.3046 5.56665C21.359 5.61461 21.4128 5.66203 21.4661 5.70892C21.8021 6.00484 22.1143 6.2798 22.3954 6.53929C23.0475 7.14139 23.5964 7.71727 24.0086 8.43667C24.8314 9.87318 24.9988 11.7014 24.9988 15.0716C24.9988 17.5959 24.8515 19.569 24.4553 21.0934C24.0531 22.6415 23.3765 23.7925 22.2833 24.5772C21.219 25.3411 19.8694 25.6765 18.2949 25.8387C16.7292 26.0001 14.8133 26.0001 12.5444 26.0001H12.4544C10.1855 26.0001 8.2696 26.0001 6.70396 25.8387C5.12945 25.6765 3.77983 25.3411 2.71553 24.5772C1.6223 23.7925 0.945725 22.6415 0.543438 21.0934C0.147306 19.569 0 17.5959 0 15.0716C0 11.7012 0.167682 9.87306 0.990917 8.43652C1.40316 7.71716 1.95218 7.14131 2.60442 6.53923C2.8852 6.28004 3.19711 6.00541 3.53276 5.70987C3.58638 5.66266 3.64059 5.61491 3.69539 5.56663C4.09667 5.21294 4.53852 4.82103 5.02952 4.36569C5.04503 4.3513 5.06104 4.33746 5.07752 4.3242C5.33404 4.11771 5.63342 3.86317 5.96179 3.58398C6.65591 2.99383 7.47961 2.29351 8.30203 1.70387Z" fill="#302A2A"/>
</svg>
