<svg width="27" height="24" viewBox="0 0 27 24" fill="none" xmlns="http://www.w3.org/2000/svg">
<path d="M24.7845 2.26658C21.7167 -0.755499 16.7251 -0.755499 13.6575 2.26658L13.5 2.42159L13.3426 2.26658C10.2749 -0.755499 5.28328 -0.755551 2.21566 2.26658C0.691957 3.76743 -0.0524953 5.49047 0.00287583 7.38791C0.151745 12.4893 6.01412 17.636 10.2946 21.3939C11.3316 22.3043 12.2271 23.0904 12.9034 23.7566C13.0616 23.9124 13.2762 24 13.5 24C13.7237 24 13.9383 23.9124 14.0966 23.7566C14.7728 23.0904 15.6684 22.3043 16.7053 21.3939C20.9858 17.636 26.8482 12.4893 26.9971 7.38791C27.0527 5.49047 26.308 3.76743 24.7845 2.26658ZM25.3103 7.34011C25.2548 9.24394 24.1659 11.4123 21.9814 13.9688C20.0453 16.2349 17.5709 18.4072 15.5826 20.1527C14.802 20.8382 14.0999 21.4547 13.5 22.0119C12.9 21.4545 12.198 20.8379 11.4173 20.1528C9.42926 18.4074 6.9547 16.235 5.01855 13.969C2.83413 11.4123 1.74548 9.24394 1.68969 7.34022C1.6475 5.89822 2.20992 4.62329 3.40883 3.44213C4.56883 2.30199 6.14054 1.66169 7.77917 1.66169C9.4178 1.66169 10.9895 2.30199 12.1495 3.44213L12.9036 4.185C13.0618 4.34085 13.2764 4.42841 13.5002 4.42841C13.724 4.42841 13.9386 4.34085 14.0968 4.185L14.8509 3.44213C16.0109 2.30199 17.5826 1.66169 19.2212 1.66169C20.8598 1.66169 22.4316 2.30199 23.5916 3.44213C24.7901 4.62329 25.3524 5.89812 25.3103 7.34022V7.34011Z" fill="#302A2A"/>
</svg>
