<svg width="21" height="18" viewBox="0 0 21 18" fill="none" xmlns="http://www.w3.org/2000/svg">
<path d="M19.2768 1.69993C16.8908 -0.566625 13.0084 -0.566625 10.6225 1.69993L10.5 1.81619L10.3776 1.69993C7.99155 -0.566625 4.10922 -0.566664 1.72329 1.69993C0.538189 2.82557 -0.0408297 4.11785 0.00223676 5.54093C0.118024 9.36697 4.67765 13.227 8.00693 16.0454C8.81347 16.7282 9.50999 17.3178 10.036 17.8174C10.159 17.9343 10.326 18 10.5 18C10.674 18 10.8409 17.9343 10.964 17.8174C11.49 17.3178 12.1865 16.7282 12.993 16.0454C16.3223 13.227 20.882 9.36697 20.9977 5.54093C21.041 4.11785 20.4618 2.82557 19.2768 1.69993ZM19.6858 5.50508C19.6426 6.93295 18.7957 8.55921 17.0967 10.4766C15.5908 12.1761 13.6662 13.8054 12.1198 15.1145C11.5127 15.6286 10.9666 16.0911 10.5 16.509C10.0334 16.0909 9.48731 15.6284 8.88016 15.1146C7.33387 13.8055 5.40921 12.1763 3.90332 10.4767C2.20433 8.55921 1.3576 6.93295 1.3142 5.50516C1.28139 4.42367 1.71882 3.46747 2.65132 2.5816C3.55353 1.7265 4.77598 1.24627 6.05047 1.24627C7.32495 1.24627 8.5474 1.7265 9.44962 2.5816L10.0361 3.13875C10.1592 3.25564 10.3261 3.32131 10.5002 3.32131C10.6742 3.32131 10.8411 3.25564 10.9642 3.13875L11.5507 2.5816C12.4529 1.7265 13.6754 1.24627 14.9498 1.24627C16.2243 1.24627 17.4468 1.7265 18.349 2.5816C19.2812 3.46747 19.7185 4.42359 19.6858 5.50516V5.50508Z" fill="white"/>
</svg>
