<svg width="43" height="30" viewBox="0 0 43 30" fill="none" xmlns="http://www.w3.org/2000/svg">
<path d="M37.7419 0L38.9032 2.80645C35.3548 3.90322 32.6452 5.41935 30.7742 7.35484C28.9677 9.22581 28.0645 11.2258 28.0645 13.3548C28.0645 14.7742 28.6129 15.4839 29.7097 15.4839C30.4194 15.4839 31.2903 15.3226 32.3226 15C33.3548 14.6129 34.4516 14.4193 35.6129 14.4193C37.8065 14.4193 39.5484 15.0968 40.8387 16.4516C42.1935 17.8064 42.871 19.5484 42.871 21.6774C42.871 24 42.0323 25.9032 40.3548 27.3871C38.6774 28.871 36.5161 29.6129 33.871 29.6129C30.7097 29.6129 28.2258 28.5161 26.4194 26.3226C24.6774 24.129 23.8065 21.0968 23.8065 17.2258C23.8065 12.9677 24.9677 9.41935 27.2903 6.58064C29.6129 3.67742 33.0968 1.48387 37.7419 0ZM13.8387 0L15 2.80645C11.5161 3.90322 8.83871 5.41935 6.96774 7.35484C5.09677 9.22581 4.16129 11.2258 4.16129 13.3548C4.16129 14.7742 4.70968 15.4839 5.80645 15.4839C6.51613 15.4839 7.3871 15.3226 8.41935 15C9.45161 14.6129 10.5806 14.4193 11.8065 14.4193C14 14.4193 15.7419 15.0968 17.0323 16.4516C18.3226 17.8064 18.9677 19.5484 18.9677 21.6774C18.9677 24 18.129 25.9032 16.4516 27.3871C14.8387 28.871 12.6774 29.6129 9.96774 29.6129C6.87097 29.6129 4.41935 28.5161 2.6129 26.3226C0.870968 24.129 0 21.0968 0 17.2258C0 12.9677 1.16129 9.41935 3.48387 6.58064C5.80645 3.67742 9.25806 1.48387 13.8387 0Z" fill="white" fill-opacity="0.12"/>
</svg>
