<svg width="43" height="30" viewBox="0 0 43 30" fill="none" xmlns="http://www.w3.org/2000/svg">
<path d="M5.12903 29.6129L3.96774 26.9032C7.45161 25.7419 10.129 24.2258 12 22.3548C13.871 20.4194 14.8065 18.4194 14.8065 16.3548C14.8065 14.871 14.2581 14.129 13.1613 14.129C12.4516 14.129 11.5806 14.3226 10.5484 14.7097C9.58065 15.0323 8.45161 15.1935 7.16129 15.1935C5.03226 15.1935 3.29032 14.5484 1.93548 13.2581C0.645161 11.9032 0 10.129 0 7.93548C0 5.54838 0.838709 3.64516 2.51613 2.2258C4.19355 0.741934 6.35484 0 9 0C12.1613 0 14.6129 1.09678 16.3548 3.29032C18.1613 5.48387 19.0645 8.51612 19.0645 12.3871C19.0645 16.6452 17.9032 20.2258 15.5806 23.129C13.2581 25.9677 9.77419 28.129 5.12903 29.6129ZM28.9355 29.6129L27.7742 26.9032C31.2581 25.7419 33.9355 24.2258 35.8065 22.3548C37.6774 20.4194 38.6129 18.4194 38.6129 16.3548C38.6129 14.871 38.0645 14.129 36.9677 14.129C36.2581 14.129 35.3871 14.3226 34.3548 14.7097C33.3871 15.0323 32.2581 15.1935 30.9677 15.1935C28.8387 15.1935 27.0968 14.5484 25.7419 13.2581C24.4516 11.9032 23.8065 10.129 23.8065 7.93548C23.8065 5.54838 24.6452 3.64516 26.3226 2.2258C28 0.741934 30.1613 0 32.8064 0C35.9677 0 38.4194 1.09678 40.1613 3.29032C41.9677 5.48387 42.871 8.51612 42.871 12.3871C42.871 16.6452 41.7097 20.2258 39.3871 23.129C37.0645 25.9677 33.5806 28.129 28.9355 29.6129Z" fill="white" fill-opacity="0.12"/>
</svg>
