<svg width="24" height="24" viewBox="0 0 24 24" fill="none" xmlns="http://www.w3.org/2000/svg">
<path d="M23.7266 22.4071L17.8694 16.5501C19.3253 14.7993 20.2024 12.5512 20.2024 10.1016C20.2024 4.53154 15.671 0 10.1013 0C4.5314 0 0 4.53154 0 10.1016C0 15.6712 4.5314 20.2024 10.1013 20.2024C12.5507 20.2024 14.799 19.3254 16.5498 17.8695L22.4071 23.7267C22.5892 23.9089 22.8281 24 23.0668 24C23.3056 24 23.5444 23.9089 23.7267 23.7267C24.0911 23.3623 24.0911 22.7715 23.7266 22.4071ZM1.86621 10.1016C1.86621 5.56057 5.56043 1.86621 10.1013 1.86621C14.642 1.86621 18.3361 5.56057 18.3361 10.1016C18.3361 14.6422 14.642 18.3362 10.1013 18.3362C5.56043 18.3362 1.86621 14.6422 1.86621 10.1016Z" fill="#302A2A"/>
</svg>
