<svg width="14" height="14" viewBox="0 0 14 14" fill="none" xmlns="http://www.w3.org/2000/svg">
<path d="M5.00007 10.8297C5.00007 11.4613 5.25273 12.0677 5.7075 12.5225L6.81918 13.6342L7.95611 12.4972C8.89093 11.5624 8.89093 10.0465 7.95611 9.13694L6.81918 8L5.68224 9.13694C5.25273 9.59171 5.00007 10.1728 5.00007 10.8297Z" fill="#D61D35"/>
<path d="M8.65715 2.82971C8.65715 3.46135 8.4045 4.06771 7.94972 4.52249L6.83805 5.63416L5.70111 4.49722C4.7663 3.56241 4.7663 2.04649 5.70111 1.13694L6.83805 -2.06804e-06L7.97499 1.13694C8.4045 1.59171 8.65715 2.17281 8.65715 2.82971Z" fill="#D61D35"/>
<path d="M2.82972 8.66347C2.19808 8.66347 1.59171 8.41081 1.13694 7.95604L-1.59031e-07 6.84436L1.13694 5.70743C1.59171 5.25265 2.22335 5 2.82971 5C3.43608 5 4.04245 5.22738 4.52249 5.70743L5.65943 6.84436L4.49723 7.9813C4.06772 8.41081 3.46135 8.66347 2.82972 8.66347Z" fill="#D61D35"/>
<path d="M9.1622 7.98131C9.61697 8.43608 10.2233 8.68874 10.855 8.68874C11.4866 8.68874 12.093 8.43608 12.5478 7.98131L13.6594 6.84437L12.5225 5.70743C12.0677 5.25265 11.4361 5 10.8297 5C10.2233 5 9.61697 5.22739 9.13693 5.70743L7.99999 6.84437L9.1622 7.98131Z" fill="#D61D35"/>
</svg>
