<svg width="33" height="22" viewBox="0 0 33 22" fill="none" xmlns="http://www.w3.org/2000/svg">
<path d="M32.3884 10.2927L30.4051 8.45307C30.2699 8.32768 30.1662 8.17214 30.1024 7.99911L28.545 3.76988C28.3222 3.17385 27.9231 2.65986 27.4009 2.29641C26.8786 1.93296 26.258 1.73731 25.6217 1.73554H23.2619V1.07352C23.2619 0.788823 23.1488 0.515782 22.9475 0.314468C22.7462 0.113154 22.4731 5.65953e-05 22.1884 5.65953e-05H7.92709C7.71489 -0.00244257 7.51008 0.0779137 7.3562 0.224045C7.20232 0.370176 7.1115 0.57056 7.10304 0.782602C7.10106 0.888597 7.12023 0.993923 7.15942 1.09243C7.19861 1.19093 7.25705 1.28063 7.3313 1.35629C7.40556 1.43195 7.49415 1.49206 7.5919 1.53309C7.68965 1.57412 7.7946 1.59526 7.90062 1.59526H21.6666V8.51644C21.6666 8.80114 21.7797 9.07418 21.981 9.27549C22.1823 9.47681 22.4554 9.5899 22.7401 9.5899H29.223L31.1484 11.3226V17.7863H29.4028C29.229 17.0257 28.8021 16.3466 28.1921 15.8602C27.582 15.3739 26.8249 15.109 26.0447 15.109C25.2645 15.109 24.5074 15.3739 23.8973 15.8602C23.2873 16.3466 22.8604 17.0257 22.6866 17.7863H17.3153C17.1415 17.0257 16.7146 16.3466 16.1045 15.8602C15.4945 15.3739 14.7374 15.109 13.9571 15.109C13.1769 15.109 12.4198 15.3739 11.8098 15.8602C11.1997 16.3466 10.7728 17.0257 10.599 17.7863H7.92702C7.7148 17.7838 7.50998 17.8642 7.3561 18.0103C7.20222 18.1565 7.11144 18.3569 7.10304 18.569C7.10106 18.675 7.12023 18.7803 7.15942 18.8788C7.19862 18.9773 7.25705 19.067 7.33131 19.1427C7.40556 19.2183 7.49416 19.2784 7.59191 19.3195C7.68966 19.3605 7.79461 19.3816 7.90062 19.3816H10.6124C10.7972 20.129 11.227 20.7929 11.8332 21.2675C12.4394 21.7421 13.187 22 13.9569 22C14.7268 22 15.4745 21.7421 16.0807 21.2675C16.6869 20.7929 17.1166 20.129 17.3014 19.3816H22.7001C22.8849 20.129 23.3146 20.7929 23.9208 21.2675C24.527 21.7421 25.2747 22 26.0446 22C26.8145 22 27.5622 21.7421 28.1684 21.2675C28.7746 20.7929 29.2043 20.129 29.3891 19.3816H31.6702C31.9549 19.3816 32.2279 19.2685 32.4293 19.0672C32.6306 18.8659 32.7437 18.5929 32.7437 18.3082V11.0905C32.7436 10.9401 32.7119 10.7914 32.6507 10.6539C32.5895 10.5165 32.5001 10.3934 32.3884 10.2927ZM23.2619 7.99489V3.33069H25.6217C25.9324 3.33154 26.2354 3.42706 26.4904 3.60452C26.7454 3.78198 26.9402 4.03295 27.049 4.32398L28.4086 7.99489H23.2619ZM13.957 20.4046C13.591 20.4046 13.2333 20.296 12.929 20.0927C12.6248 19.8894 12.3876 19.6005 12.2476 19.2624C12.1076 18.9243 12.0709 18.5523 12.1423 18.1934C12.2137 17.8345 12.3899 17.5048 12.6487 17.2461C12.9075 16.9873 13.2371 16.8111 13.596 16.7397C13.9549 16.6683 14.327 16.705 14.665 16.845C15.0031 16.9851 15.2921 17.2222 15.4954 17.5265C15.6987 17.8308 15.8072 18.1885 15.8072 18.5544C15.8066 19.045 15.6115 19.5152 15.2646 19.8621C14.9178 20.2089 14.4475 20.404 13.957 20.4046ZM26.0446 20.4046C25.6787 20.4046 25.321 20.2961 25.0167 20.0928C24.7124 19.8895 24.4753 19.6005 24.3352 19.2624C24.1952 18.9244 24.1585 18.5523 24.2299 18.1934C24.3013 17.8345 24.4775 17.5048 24.7363 17.2461C24.995 16.9873 25.3247 16.8111 25.6836 16.7397C26.0425 16.6683 26.4146 16.705 26.7526 16.845C27.0907 16.9851 27.3797 17.2222 27.583 17.5265C27.7863 17.8308 27.8948 18.1885 27.8948 18.5544C27.8942 19.0449 27.6991 19.5152 27.3523 19.8621C27.0054 20.2089 26.5351 20.404 26.0446 20.4046Z" fill="#302A2A"/>
<path d="M4.4946 6.05756H13.5403C13.7518 6.05756 13.9547 5.97351 14.1043 5.82392C14.2539 5.67432 14.338 5.47142 14.338 5.25986C14.338 5.04829 14.2539 4.8454 14.1043 4.6958C13.9547 4.5462 13.7518 4.46216 13.5403 4.46216H4.4946C4.28304 4.46216 4.08014 4.5462 3.93054 4.6958C3.78094 4.8454 3.6969 5.04829 3.6969 5.25986C3.6969 5.47142 3.78094 5.67432 3.93054 5.82392C4.08014 5.97351 4.28304 6.05756 4.4946 6.05756Z" fill="#302A2A"/>
<path d="M14.3379 9.6908C14.3379 9.47923 14.2539 9.27634 14.1043 9.12674C13.9547 8.97714 13.7518 8.8931 13.5402 8.8931H0.804841C0.699489 8.89216 0.594994 8.91209 0.497388 8.95176C0.399783 8.99142 0.311002 9.05002 0.236171 9.12419C0.16134 9.19835 0.101942 9.2866 0.0614064 9.38385C0.0208705 9.4811 0 9.58541 0 9.69077C0 9.79612 0.0208705 9.90044 0.0614064 9.99768C0.101942 10.0949 0.16134 10.1832 0.236171 10.2573C0.311002 10.3315 0.399783 10.3901 0.497388 10.4298C0.594994 10.4694 0.699489 10.4894 0.804841 10.4884H13.5402C13.7518 10.4884 13.9547 10.4044 14.1043 10.2548C14.2539 10.1052 14.3379 9.90235 14.3379 9.6908Z" fill="#302A2A"/>
<path d="M9.28693 14.1219C9.28693 14.0171 9.26629 13.9134 9.22621 13.8166C9.18612 13.7198 9.12737 13.6319 9.0533 13.5578C8.97924 13.4838 8.89131 13.425 8.79453 13.3849C8.69776 13.3448 8.59404 13.3242 8.48929 13.3242H2.9451C2.73478 13.3261 2.53372 13.411 2.38566 13.5604C2.23761 13.7097 2.15454 13.9116 2.15454 14.1219C2.15454 14.3322 2.23761 14.534 2.38566 14.6834C2.53372 14.8328 2.73478 14.9177 2.9451 14.9196H8.48929C8.70084 14.9195 8.90372 14.8355 9.05331 14.6859C9.20289 14.5363 9.28693 14.3334 9.28693 14.1219Z" fill="#302A2A"/>
</svg>
