<svg width="19" height="21" viewBox="0 0 19 21" fill="none" xmlns="http://www.w3.org/2000/svg">
<path d="M17.8265 7.82698C17.2939 6.65123 16.5033 5.69713 15.6382 4.758C15.2527 5.38094 14.8941 6.13755 14.279 6.55784C13.4076 7.15322 12.1973 6.9844 11.5273 6.16799C10.9371 5.45539 10.7576 4.47339 11.0588 3.6051C11.4926 2.354 11.2637 1.22296 10.9137 0H10.0879C9.49782 1.07116 8.46772 1.85981 7.32667 2.27513C5.20502 3.3186 3.78355 5.48799 3.68437 7.85249C2.97124 7.35498 2.39197 6.73072 1.80677 6.09584C1.13194 7.19095 0.526221 8.31613 0.236775 9.57916C-0.060669 10.8769 -0.0777315 12.2375 0.184808 13.5426C1.04941 17.8407 4.95064 21 9.32711 21C13.1838 21 16.7384 18.5522 18.0769 14.9266C18.9215 12.6385 18.8325 10.0485 17.8265 7.82698ZM11.4142 18.4417C10.9917 19.218 10.2281 19.7695 9.3258 19.7695C7.0896 19.7695 6.29919 16.8904 7.30444 15.2325L9.32683 11.5071L11.3427 15.2206C11.9284 16.2012 11.9617 17.4358 11.4142 18.4417ZM12.4266 19.1504C13.2374 17.7704 13.2391 15.9978 12.4179 14.6221L9.32683 8.928L6.2357 14.6221C5.41465 15.9975 5.41617 17.7696 6.22643 19.1495C3.3017 17.9286 1.23468 15.0373 1.23017 11.684C1.22832 10.4421 1.5099 9.22438 2.04986 8.11983C2.65931 8.67288 3.33689 9.14149 4.07258 9.51788L5.12976 10.0588C4.89568 8.69762 4.77624 7.33927 5.34181 6.03235C5.9709 4.57897 7.08513 3.80509 8.45254 3.13046C9.0544 2.83495 9.6068 2.44735 10.0895 1.98511C10.0963 2.38788 10.0271 2.82469 9.89625 3.20191C9.34754 4.78384 9.9138 6.71718 11.3476 7.63507C12.8099 8.57125 14.7576 8.16261 15.7847 6.78826C16.1487 7.26839 16.4572 7.78609 16.7056 8.33463C17.1935 9.41186 17.4348 10.5625 17.423 11.7545C17.39 15.086 15.3292 17.9403 12.4266 19.1504Z" fill="#595959"/>
</svg>
