<svg width="67" height="64" viewBox="0 0 67 64" fill="none" xmlns="http://www.w3.org/2000/svg">
<ellipse cx="33.5" cy="32" rx="33.5" ry="32" fill="#F0A6A8"/>
<g clip-path="url(#clip0_114_22)">
<path d="M33.9801 13C28.6933 13 24.3921 17.3765 24.3921 22.7559C24.3921 28.1352 28.6933 32.5117 33.9801 32.5117C39.267 32.5117 43.5682 28.1352 43.5682 22.7559C43.5682 17.3765 39.267 13 33.9801 13ZM33.9801 30.3438C29.8682 30.3438 26.5228 26.9398 26.5228 22.7559C26.5228 18.5719 29.8682 15.168 33.9801 15.168C38.0921 15.168 41.4376 18.5719 41.4376 22.7559C41.4376 26.9398 38.0921 30.3438 33.9801 30.3438Z" fill="#605555"/>
<path d="M45.9095 38.8853C43.2845 36.1733 39.8047 34.6797 36.1108 34.6797H31.8494C28.1557 34.6797 24.6757 36.1733 22.0507 38.8853C19.4386 41.5839 18 45.1462 18 48.9161C18 49.5148 18.477 50.0001 19.0653 50.0001H48.8948C49.4832 50.0001 49.9603 49.5148 49.9603 48.9161C49.9603 45.1462 48.5216 41.5839 45.9095 38.8853ZM20.1776 47.8322C20.7113 41.6833 25.7423 36.8477 31.8494 36.8477H36.1108C42.218 36.8477 47.2489 41.6833 47.7827 47.8322H20.1776Z" fill="#605555"/>
</g>
<defs>
<clipPath id="clip0_114_22">
<rect width="32" height="37" fill="white" transform="translate(18 13)"/>
</clipPath>
</defs>
</svg>
