<svg width="22" height="25" viewBox="0 0 22 25" fill="none" xmlns="http://www.w3.org/2000/svg">
<path d="M10.9863 0C7.35161 0 4.39453 2.95708 4.39453 6.5918C4.39453 10.2265 7.35161 13.1836 10.9863 13.1836C14.621 13.1836 17.5781 10.2265 17.5781 6.5918C17.5781 2.95708 14.621 0 10.9863 0ZM10.9863 11.7188C8.15933 11.7188 5.85938 9.4188 5.85938 6.5918C5.85938 3.7648 8.15933 1.46484 10.9863 1.46484C13.8133 1.46484 16.1133 3.7648 16.1133 6.5918C16.1133 9.4188 13.8133 11.7188 10.9863 11.7188Z" fill="#302A2A"/>
<path d="M19.1878 17.49C17.3831 15.6576 14.9907 14.6484 12.4512 14.6484H9.52149C6.98203 14.6484 4.58955 15.6576 2.78486 17.49C0.989014 19.3134 0 21.7204 0 24.2676C0 24.6721 0.32793 25 0.732422 25H21.2402C21.6447 25 21.9727 24.6721 21.9727 24.2676C21.9727 21.7204 20.9836 19.3134 19.1878 17.49ZM1.49707 23.5352C1.86401 19.3806 5.3228 16.1133 9.52149 16.1133H12.4512C16.6499 16.1133 20.1086 19.3806 20.4756 23.5352H1.49707Z" fill="#302A2A"/>
</svg>
