<svg width="24" height="16" viewBox="0 0 24 16" fill="none" xmlns="http://www.w3.org/2000/svg">
<path d="M11.9084 12.3801C11.0149 12.3801 10.1414 12.1151 9.39845 11.6187C8.65551 11.1223 8.07646 10.4167 7.73452 9.59123C7.39258 8.76572 7.30312 7.85735 7.47743 6.98099C7.65175 6.10463 8.08203 5.29964 8.71385 4.66783C9.34566 4.03601 10.1507 3.60573 11.027 3.43141C11.9034 3.2571 12.8117 3.34656 13.6372 3.6885C14.4628 4.03044 15.1683 4.60949 15.6648 5.35243C16.1612 6.09537 16.4261 6.96883 16.4261 7.86236C16.4248 9.06014 15.9484 10.2085 15.1015 11.0554C14.2545 11.9024 13.1062 12.3788 11.9084 12.3801ZM11.9084 4.63539C11.2701 4.63539 10.6462 4.82465 10.1156 5.17923C9.5849 5.53382 9.17129 6.0378 8.92705 6.62745C8.68281 7.2171 8.61891 7.86594 8.74342 8.49191C8.86793 9.11788 9.17527 9.69287 9.62657 10.1442C10.0779 10.5955 10.6529 10.9028 11.2788 11.0273C11.9048 11.1518 12.5536 11.0879 13.1433 10.8437C13.7329 10.5994 14.2369 10.1858 14.5915 9.65516C14.9461 9.12449 15.1353 8.50059 15.1353 7.86236C15.1344 7.0068 14.7941 6.18655 14.1892 5.58158C13.5842 4.97661 12.7639 4.63633 11.9084 4.63539Z" fill="#595959"/>
<path d="M11.9083 15.7256C9.31152 15.7249 6.7996 14.8011 4.82112 13.1192L0.898343 9.7998C0.616845 9.56152 0.390654 9.26475 0.235511 8.93016C0.0803683 8.59556 0 8.23118 0 7.86237C0 7.49356 0.0803683 7.12918 0.235511 6.79458C0.390654 6.45999 0.616845 6.16322 0.898343 5.92493L4.82112 2.60552C6.79947 0.923542 9.31154 0 11.9083 0C14.505 0 17.017 0.923542 18.9954 2.60552L22.9182 5.92493C23.1997 6.16322 23.4259 6.45999 23.581 6.79458C23.7361 7.12918 23.8165 7.49356 23.8165 7.86237C23.8165 8.23118 23.7361 8.59556 23.581 8.93016C23.4259 9.26475 23.1997 9.56152 22.9182 9.7998L18.9954 13.1192C17.0168 14.8009 14.505 15.7247 11.9083 15.7256ZM11.9083 1.29121C9.61694 1.29194 7.40049 2.10716 5.65475 3.59126L1.73198 6.91063C1.59372 7.0277 1.48264 7.17348 1.40645 7.33784C1.33025 7.50219 1.29079 7.68118 1.29079 7.86234C1.29079 8.04349 1.33025 8.22248 1.40645 8.38683C1.48264 8.55119 1.59372 8.69697 1.73198 8.81404L5.65475 12.1334C7.40017 13.6181 9.61684 14.4333 11.9083 14.4333C14.1997 14.4333 16.4163 13.6181 18.1618 12.1334L22.0845 8.81411C22.2228 8.69704 22.3339 8.55126 22.4101 8.3869C22.4863 8.22255 22.5257 8.04356 22.5257 7.8624C22.5257 7.68125 22.4863 7.50226 22.4101 7.33791C22.3339 7.17355 22.2228 7.02777 22.0845 6.9107L18.1618 3.5913C16.416 2.10718 14.1996 1.29195 11.9083 1.29121Z" fill="#595959"/>
</svg>
